# xmcd
# Track frame offsets:
# 150
# 16697
# 30192
# 48040
# 62525
# 76740
# 91435
# 105770
# 120515
# 131672
#
# Disc length: 1939 seconds
# Revision: 0
# Processed by: cddbd v1.4PL0 Copyright (c) Steve Scherf et al.
# Submitted via: VisiTrax 2.9.5.180 - For more info visit www.synapsa.com
#
DISCID=5e07910a
DTITLE=Ronny Miller - Ronny Miller
DYEAR=1998
DGENRE=
TTITLE0=One miracle at a time
TTITLE1=Kickin' back
TTITLE2=I'll never say never again
TTITLE3=So many memories
TTITLE4=If I'd only been yours
TTITLE5=A house with a foreplace
TTITLE6=Table for two
TTITLE7=Losin' faith
TTITLE8=It's a simple as that
TTITLE9=She just comes home to leave
EXTD=
EXTT0=
EXTT1=
EXTT2=
EXTT3=
EXTT4=
EXTT5=
EXTT6=
EXTT7=
EXTT8=
EXTT9=
PLAYORDER=
